<svg xmlns="http://www.w3.org/2000/svg" version="1.1" xmlns:xlink="http://www.w3.org/1999/xlink" xmlns:svgjs="http://svgjs.com/svgjs" width="1440" height="1000" preserveAspectRatio="none" viewBox="0 0 1440 1000"><g mask="url(&quot;#SvgjsMask1030&quot;)" fill="none"><rect width="1440" height="1000" x="0" y="0" fill="rgba(0, 43, 73, 1)"></rect><path d="M64.54 -50.15L129.49 -12.65L129.49 62.35L64.54 99.85L-0.41 62.35L-0.41 -12.65zM129.49 287.35L194.45 324.85L194.45 399.85L129.49 437.35L64.54 399.85L64.54 324.85zM64.54 399.85L129.49 437.35L129.49 512.35L64.54 549.85L-0.41 512.35L-0.41 437.35zM129.49 962.35L194.45 999.85L194.45 1074.85L129.49 1112.35L64.54 1074.85L64.54 999.85zM259.4 287.35L324.36 324.85L324.36 399.85L259.4 437.35L194.45 399.85L194.45 324.85zM259.4 512.35L324.36 549.85L324.36 624.85L259.4 662.35L194.45 624.85L194.45 549.85zM194.45 849.85L259.4 887.35L259.4 962.35L194.45 999.85L129.49 962.35L129.49 887.35zM324.36 849.85L389.31 887.35L389.31 962.35L324.36 999.85L259.4 962.35L259.4 887.35zM389.31 962.35L454.26 999.85L454.26 1074.85L389.31 1112.35L324.36 1074.85L324.36 999.85zM454.26 174.85L519.22 212.35L519.22 287.35L454.26 324.85L389.31 287.35L389.31 212.35zM519.22 512.35L584.17 549.85L584.17 624.85L519.22 662.35L454.26 624.85L454.26 549.85zM454.26 624.85L519.22 662.35L519.22 737.35L454.26 774.85L389.31 737.35L389.31 662.35zM519.22 737.35L584.17 774.85L584.17 849.85L519.22 887.35L454.26 849.85L454.26 774.85zM454.26 849.85L519.22 887.35L519.22 962.35L454.26 999.85L389.31 962.35L389.31 887.35zM649.12 62.35L714.08 99.85L714.08 174.85L649.12 212.35L584.17 174.85L584.17 99.85zM649.12 512.35L714.08 549.85L714.08 624.85L649.12 662.35L584.17 624.85L584.17 549.85zM584.17 624.85L649.12 662.35L649.12 737.35L584.17 774.85L519.22 737.35L519.22 662.35zM584.17 849.85L649.12 887.35L649.12 962.35L584.17 999.85L519.22 962.35L519.22 887.35zM779.03 512.35L843.99 549.85L843.99 624.85L779.03 662.35L714.08 624.85L714.08 549.85zM714.08 849.85L779.03 887.35L779.03 962.35L714.08 999.85L649.12 962.35L649.12 887.35zM908.94 287.35L973.89 324.85L973.89 399.85L908.94 437.35L843.98 399.85L843.98 324.85zM843.98 399.85L908.94 437.35L908.94 512.35L843.98 549.85L779.03 512.35L779.03 437.35zM1038.85 62.35L1103.8 99.85L1103.8 174.85L1038.85 212.35L973.89 174.85L973.89 99.85zM973.89 624.85L1038.85 662.35L1038.85 737.35L973.89 774.85L908.94 737.35L908.94 662.35zM1038.85 737.35L1103.8 774.85L1103.8 849.85L1038.85 887.35L973.89 849.85L973.89 774.85zM1103.8 -50.15L1168.75 -12.65L1168.75 62.35L1103.8 99.85L1038.85 62.35L1038.85 -12.65zM1103.8 174.85L1168.75 212.35L1168.75 287.35L1103.8 324.85L1038.85 287.35L1038.85 212.35zM1233.71 -50.15L1298.66 -12.65L1298.66 62.35L1233.71 99.85L1168.75 62.35L1168.75 -12.65zM1298.66 287.35L1363.61 324.85L1363.61 399.85L1298.66 437.35L1233.71 399.85L1233.71 324.85zM1233.71 399.85L1298.66 437.35L1298.66 512.35L1233.71 549.85L1168.75 512.35L1168.75 437.35zM1233.71 624.85L1298.66 662.35L1298.66 737.35L1233.71 774.85L1168.75 737.35L1168.75 662.35zM1298.66 737.35L1363.61 774.85L1363.61 849.85L1298.66 887.35L1233.71 849.85L1233.71 774.85zM1233.71 849.85L1298.66 887.35L1298.66 962.35L1233.71 999.85L1168.75 962.35L1168.75 887.35zM1363.62 -50.15L1428.57 -12.65L1428.57 62.35L1363.62 99.85L1298.66 62.35L1298.66 -12.65zM1363.62 174.85L1428.57 212.35L1428.57 287.35L1363.62 324.85L1298.66 287.35L1298.66 212.35zM1558.48 737.35L1623.43 774.85L1623.43 849.85L1558.48 887.35L1493.52 849.85L1493.52 774.85zM1493.52 849.85L1558.48 887.35L1558.48 962.35L1493.52 999.85L1428.57 962.35L1428.57 887.35zM1558.48 962.35L1623.43 999.85L1623.43 1074.85L1558.48 1112.35L1493.52 1074.85L1493.52 999.85z" stroke="#03305d" stroke-width="2"></path><path d="M57.04 -50.15 a7.5 7.5 0 1 0 15 0 a7.5 7.5 0 1 0 -15 0zM121.99 -12.65 a7.5 7.5 0 1 0 15 0 a7.5 7.5 0 1 0 -15 0zM121.99 62.35 a7.5 7.5 0 1 0 15 0 a7.5 7.5 0 1 0 -15 0zM57.04 99.85 a7.5 7.5 0 1 0 15 0 a7.5 7.5 0 1 0 -15 0zM-7.91 62.35 a7.5 7.5 0 1 0 15 0 a7.5 7.5 0 1 0 -15 0zM-7.91 -12.65 a7.5 7.5 0 1 0 15 0 a7.5 7.5 0 1 0 -15 0zM121.99 287.35 a7.5 7.5 0 1 0 15 0 a7.5 7.5 0 1 0 -15 0zM186.95 324.85 a7.5 7.5 0 1 0 15 0 a7.5 7.5 0 1 0 -15 0zM186.95 399.85 a7.5 7.5 0 1 0 15 0 a7.5 7.5 0 1 0 -15 0zM121.99 437.35 a7.5 7.5 0 1 0 15 0 a7.5 7.5 0 1 0 -15 0zM57.04 399.85 a7.5 7.5 0 1 0 15 0 a7.5 7.5 0 1 0 -15 0zM57.04 324.85 a7.5 7.5 0 1 0 15 0 a7.5 7.5 0 1 0 -15 0zM121.99 512.35 a7.5 7.5 0 1 0 15 0 a7.5 7.5 0 1 0 -15 0zM57.04 549.85 a7.5 7.5 0 1 0 15 0 a7.5 7.5 0 1 0 -15 0zM-7.91 512.35 a7.5 7.5 0 1 0 15 0 a7.5 7.5 0 1 0 -15 0zM-7.91 437.35 a7.5 7.5 0 1 0 15 0 a7.5 7.5 0 1 0 -15 0zM121.99 962.35 a7.5 7.5 0 1 0 15 0 a7.5 7.5 0 1 0 -15 0zM186.95 999.85 a7.5 7.5 0 1 0 15 0 a7.5 7.5 0 1 0 -15 0zM186.95 1074.85 a7.5 7.5 0 1 0 15 0 a7.5 7.5 0 1 0 -15 0zM121.99 1112.35 a7.5 7.5 0 1 0 15 0 a7.5 7.5 0 1 0 -15 0zM57.04 1074.85 a7.5 7.5 0 1 0 15 0 a7.5 7.5 0 1 0 -15 0zM57.04 999.85 a7.5 7.5 0 1 0 15 0 a7.5 7.5 0 1 0 -15 0zM251.9 287.35 a7.5 7.5 0 1 0 15 0 a7.5 7.5 0 1 0 -15 0zM316.86 324.85 a7.5 7.5 0 1 0 15 0 a7.5 7.5 0 1 0 -15 0zM316.86 399.85 a7.5 7.5 0 1 0 15 0 a7.5 7.5 0 1 0 -15 0zM251.9 437.35 a7.5 7.5 0 1 0 15 0 a7.5 7.5 0 1 0 -15 0zM251.9 512.35 a7.5 7.5 0 1 0 15 0 a7.5 7.5 0 1 0 -15 0zM316.86 549.85 a7.5 7.5 0 1 0 15 0 a7.5 7.5 0 1 0 -15 0zM316.86 624.85 a7.5 7.5 0 1 0 15 0 a7.5 7.5 0 1 0 -15 0zM251.9 662.35 a7.5 7.5 0 1 0 15 0 a7.5 7.5 0 1 0 -15 0zM186.95 624.85 a7.5 7.5 0 1 0 15 0 a7.5 7.5 0 1 0 -15 0zM186.95 549.85 a7.5 7.5 0 1 0 15 0 a7.5 7.5 0 1 0 -15 0zM186.95 849.85 a7.5 7.5 0 1 0 15 0 a7.5 7.5 0 1 0 -15 0zM251.9 887.35 a7.5 7.5 0 1 0 15 0 a7.5 7.5 0 1 0 -15 0zM251.9 962.35 a7.5 7.5 0 1 0 15 0 a7.5 7.5 0 1 0 -15 0zM121.99 887.35 a7.5 7.5 0 1 0 15 0 a7.5 7.5 0 1 0 -15 0zM316.86 849.85 a7.5 7.5 0 1 0 15 0 a7.5 7.5 0 1 0 -15 0zM381.81 887.35 a7.5 7.5 0 1 0 15 0 a7.5 7.5 0 1 0 -15 0zM381.81 962.35 a7.5 7.5 0 1 0 15 0 a7.5 7.5 0 1 0 -15 0zM316.86 999.85 a7.5 7.5 0 1 0 15 0 a7.5 7.5 0 1 0 -15 0zM446.76 999.85 a7.5 7.5 0 1 0 15 0 a7.5 7.5 0 1 0 -15 0zM446.76 1074.85 a7.5 7.5 0 1 0 15 0 a7.5 7.5 0 1 0 -15 0zM381.81 1112.35 a7.5 7.5 0 1 0 15 0 a7.5 7.5 0 1 0 -15 0zM316.86 1074.85 a7.5 7.5 0 1 0 15 0 a7.5 7.5 0 1 0 -15 0zM446.76 174.85 a7.5 7.5 0 1 0 15 0 a7.5 7.5 0 1 0 -15 0zM511.72 212.35 a7.5 7.5 0 1 0 15 0 a7.5 7.5 0 1 0 -15 0zM511.72 287.35 a7.5 7.5 0 1 0 15 0 a7.5 7.5 0 1 0 -15 0zM446.76 324.85 a7.5 7.5 0 1 0 15 0 a7.5 7.5 0 1 0 -15 0zM381.81 287.35 a7.5 7.5 0 1 0 15 0 a7.5 7.5 0 1 0 -15 0zM381.81 212.35 a7.5 7.5 0 1 0 15 0 a7.5 7.5 0 1 0 -15 0zM511.72 512.35 a7.5 7.5 0 1 0 15 0 a7.5 7.5 0 1 0 -15 0zM576.67 549.85 a7.5 7.5 0 1 0 15 0 a7.5 7.5 0 1 0 -15 0zM576.67 624.85 a7.5 7.5 0 1 0 15 0 a7.5 7.5 0 1 0 -15 0zM511.72 662.35 a7.5 7.5 0 1 0 15 0 a7.5 7.5 0 1 0 -15 0zM446.76 624.85 a7.5 7.5 0 1 0 15 0 a7.5 7.5 0 1 0 -15 0zM446.76 549.85 a7.5 7.5 0 1 0 15 0 a7.5 7.5 0 1 0 -15 0zM511.72 737.35 a7.5 7.5 0 1 0 15 0 a7.5 7.5 0 1 0 -15 0zM446.76 774.85 a7.5 7.5 0 1 0 15 0 a7.5 7.5 0 1 0 -15 0zM381.81 737.35 a7.5 7.5 0 1 0 15 0 a7.5 7.5 0 1 0 -15 0zM381.81 662.35 a7.5 7.5 0 1 0 15 0 a7.5 7.5 0 1 0 -15 0zM576.67 774.85 a7.5 7.5 0 1 0 15 0 a7.5 7.5 0 1 0 -15 0zM576.67 849.85 a7.5 7.5 0 1 0 15 0 a7.5 7.5 0 1 0 -15 0zM511.72 887.35 a7.5 7.5 0 1 0 15 0 a7.5 7.5 0 1 0 -15 0zM446.76 849.85 a7.5 7.5 0 1 0 15 0 a7.5 7.5 0 1 0 -15 0zM511.72 962.35 a7.5 7.5 0 1 0 15 0 a7.5 7.5 0 1 0 -15 0zM641.62 62.35 a7.5 7.5 0 1 0 15 0 a7.5 7.5 0 1 0 -15 0zM706.58 99.85 a7.5 7.5 0 1 0 15 0 a7.5 7.5 0 1 0 -15 0zM706.58 174.85 a7.5 7.5 0 1 0 15 0 a7.5 7.5 0 1 0 -15 0zM641.62 212.35 a7.5 7.5 0 1 0 15 0 a7.5 7.5 0 1 0 -15 0zM576.67 174.85 a7.5 7.5 0 1 0 15 0 a7.5 7.5 0 1 0 -15 0zM576.67 99.85 a7.5 7.5 0 1 0 15 0 a7.5 7.5 0 1 0 -15 0zM641.62 512.35 a7.5 7.5 0 1 0 15 0 a7.5 7.5 0 1 0 -15 0zM706.58 549.85 a7.5 7.5 0 1 0 15 0 a7.5 7.5 0 1 0 -15 0zM706.58 624.85 a7.5 7.5 0 1 0 15 0 a7.5 7.5 0 1 0 -15 0zM641.62 662.35 a7.5 7.5 0 1 0 15 0 a7.5 7.5 0 1 0 -15 0zM641.62 737.35 a7.5 7.5 0 1 0 15 0 a7.5 7.5 0 1 0 -15 0zM641.62 887.35 a7.5 7.5 0 1 0 15 0 a7.5 7.5 0 1 0 -15 0zM641.62 962.35 a7.5 7.5 0 1 0 15 0 a7.5 7.5 0 1 0 -15 0zM576.67 999.85 a7.5 7.5 0 1 0 15 0 a7.5 7.5 0 1 0 -15 0zM771.53 512.35 a7.5 7.5 0 1 0 15 0 a7.5 7.5 0 1 0 -15 0zM836.49 549.85 a7.5 7.5 0 1 0 15 0 a7.5 7.5 0 1 0 -15 0zM836.49 624.85 a7.5 7.5 0 1 0 15 0 a7.5 7.5 0 1 0 -15 0zM771.53 662.35 a7.5 7.5 0 1 0 15 0 a7.5 7.5 0 1 0 -15 0zM706.58 849.85 a7.5 7.5 0 1 0 15 0 a7.5 7.5 0 1 0 -15 0zM771.53 887.35 a7.5 7.5 0 1 0 15 0 a7.5 7.5 0 1 0 -15 0zM771.53 962.35 a7.5 7.5 0 1 0 15 0 a7.5 7.5 0 1 0 -15 0zM706.58 999.85 a7.5 7.5 0 1 0 15 0 a7.5 7.5 0 1 0 -15 0zM901.44 287.35 a7.5 7.5 0 1 0 15 0 a7.5 7.5 0 1 0 -15 0zM966.39 324.85 a7.5 7.5 0 1 0 15 0 a7.5 7.5 0 1 0 -15 0zM966.39 399.85 a7.5 7.5 0 1 0 15 0 a7.5 7.5 0 1 0 -15 0zM901.44 437.35 a7.5 7.5 0 1 0 15 0 a7.5 7.5 0 1 0 -15 0zM836.48 399.85 a7.5 7.5 0 1 0 15 0 a7.5 7.5 0 1 0 -15 0zM836.48 324.85 a7.5 7.5 0 1 0 15 0 a7.5 7.5 0 1 0 -15 0zM901.44 512.35 a7.5 7.5 0 1 0 15 0 a7.5 7.5 0 1 0 -15 0zM836.48 549.85 a7.5 7.5 0 1 0 15 0 a7.5 7.5 0 1 0 -15 0zM771.53 437.35 a7.5 7.5 0 1 0 15 0 a7.5 7.5 0 1 0 -15 0zM1031.35 62.35 a7.5 7.5 0 1 0 15 0 a7.5 7.5 0 1 0 -15 0zM1096.3 99.85 a7.5 7.5 0 1 0 15 0 a7.5 7.5 0 1 0 -15 0zM1096.3 174.85 a7.5 7.5 0 1 0 15 0 a7.5 7.5 0 1 0 -15 0zM1031.35 212.35 a7.5 7.5 0 1 0 15 0 a7.5 7.5 0 1 0 -15 0zM966.39 174.85 a7.5 7.5 0 1 0 15 0 a7.5 7.5 0 1 0 -15 0zM966.39 99.85 a7.5 7.5 0 1 0 15 0 a7.5 7.5 0 1 0 -15 0zM966.39 624.85 a7.5 7.5 0 1 0 15 0 a7.5 7.5 0 1 0 -15 0zM1031.35 662.35 a7.5 7.5 0 1 0 15 0 a7.5 7.5 0 1 0 -15 0zM1031.35 737.35 a7.5 7.5 0 1 0 15 0 a7.5 7.5 0 1 0 -15 0zM966.39 774.85 a7.5 7.5 0 1 0 15 0 a7.5 7.5 0 1 0 -15 0zM901.44 737.35 a7.5 7.5 0 1 0 15 0 a7.5 7.5 0 1 0 -15 0zM901.44 662.35 a7.5 7.5 0 1 0 15 0 a7.5 7.5 0 1 0 -15 0zM1096.3 774.85 a7.5 7.5 0 1 0 15 0 a7.5 7.5 0 1 0 -15 0zM1096.3 849.85 a7.5 7.5 0 1 0 15 0 a7.5 7.5 0 1 0 -15 0zM1031.35 887.35 a7.5 7.5 0 1 0 15 0 a7.5 7.5 0 1 0 -15 0zM966.39 849.85 a7.5 7.5 0 1 0 15 0 a7.5 7.5 0 1 0 -15 0zM1096.3 -50.15 a7.5 7.5 0 1 0 15 0 a7.5 7.5 0 1 0 -15 0zM1161.25 -12.65 a7.5 7.5 0 1 0 15 0 a7.5 7.5 0 1 0 -15 0zM1161.25 62.35 a7.5 7.5 0 1 0 15 0 a7.5 7.5 0 1 0 -15 0zM1031.35 -12.65 a7.5 7.5 0 1 0 15 0 a7.5 7.5 0 1 0 -15 0zM1161.25 212.35 a7.5 7.5 0 1 0 15 0 a7.5 7.5 0 1 0 -15 0zM1161.25 287.35 a7.5 7.5 0 1 0 15 0 a7.5 7.5 0 1 0 -15 0zM1096.3 324.85 a7.5 7.5 0 1 0 15 0 a7.5 7.5 0 1 0 -15 0zM1031.35 287.35 a7.5 7.5 0 1 0 15 0 a7.5 7.5 0 1 0 -15 0zM1226.21 -50.15 a7.5 7.5 0 1 0 15 0 a7.5 7.5 0 1 0 -15 0zM1291.16 -12.65 a7.5 7.5 0 1 0 15 0 a7.5 7.5 0 1 0 -15 0zM1291.16 62.35 a7.5 7.5 0 1 0 15 0 a7.5 7.5 0 1 0 -15 0zM1226.21 99.85 a7.5 7.5 0 1 0 15 0 a7.5 7.5 0 1 0 -15 0zM1291.16 287.35 a7.5 7.5 0 1 0 15 0 a7.5 7.5 0 1 0 -15 0zM1356.11 324.85 a7.5 7.5 0 1 0 15 0 a7.5 7.5 0 1 0 -15 0zM1356.11 399.85 a7.5 7.5 0 1 0 15 0 a7.5 7.5 0 1 0 -15 0zM1291.16 437.35 a7.5 7.5 0 1 0 15 0 a7.5 7.5 0 1 0 -15 0zM1226.21 399.85 a7.5 7.5 0 1 0 15 0 a7.5 7.5 0 1 0 -15 0zM1226.21 324.85 a7.5 7.5 0 1 0 15 0 a7.5 7.5 0 1 0 -15 0zM1291.16 512.35 a7.5 7.5 0 1 0 15 0 a7.5 7.5 0 1 0 -15 0zM1226.21 549.85 a7.5 7.5 0 1 0 15 0 a7.5 7.5 0 1 0 -15 0zM1161.25 512.35 a7.5 7.5 0 1 0 15 0 a7.5 7.5 0 1 0 -15 0zM1161.25 437.35 a7.5 7.5 0 1 0 15 0 a7.5 7.5 0 1 0 -15 0zM1226.21 624.85 a7.5 7.5 0 1 0 15 0 a7.5 7.5 0 1 0 -15 0zM1291.16 662.35 a7.5 7.5 0 1 0 15 0 a7.5 7.5 0 1 0 -15 0zM1291.16 737.35 a7.5 7.5 0 1 0 15 0 a7.5 7.5 0 1 0 -15 0zM1226.21 774.85 a7.5 7.5 0 1 0 15 0 a7.5 7.5 0 1 0 -15 0zM1161.25 737.35 a7.5 7.5 0 1 0 15 0 a7.5 7.5 0 1 0 -15 0zM1161.25 662.35 a7.5 7.5 0 1 0 15 0 a7.5 7.5 0 1 0 -15 0zM1356.11 774.85 a7.5 7.5 0 1 0 15 0 a7.5 7.5 0 1 0 -15 0zM1356.11 849.85 a7.5 7.5 0 1 0 15 0 a7.5 7.5 0 1 0 -15 0zM1291.16 887.35 a7.5 7.5 0 1 0 15 0 a7.5 7.5 0 1 0 -15 0zM1226.21 849.85 a7.5 7.5 0 1 0 15 0 a7.5 7.5 0 1 0 -15 0zM1291.16 962.35 a7.5 7.5 0 1 0 15 0 a7.5 7.5 0 1 0 -15 0zM1226.21 999.85 a7.5 7.5 0 1 0 15 0 a7.5 7.5 0 1 0 -15 0zM1161.25 962.35 a7.5 7.5 0 1 0 15 0 a7.5 7.5 0 1 0 -15 0zM1161.25 887.35 a7.5 7.5 0 1 0 15 0 a7.5 7.5 0 1 0 -15 0zM1356.12 -50.15 a7.5 7.5 0 1 0 15 0 a7.5 7.5 0 1 0 -15 0zM1421.07 -12.65 a7.5 7.5 0 1 0 15 0 a7.5 7.5 0 1 0 -15 0zM1421.07 62.35 a7.5 7.5 0 1 0 15 0 a7.5 7.5 0 1 0 -15 0zM1356.12 99.85 a7.5 7.5 0 1 0 15 0 a7.5 7.5 0 1 0 -15 0zM1356.12 174.85 a7.5 7.5 0 1 0 15 0 a7.5 7.5 0 1 0 -15 0zM1421.07 212.35 a7.5 7.5 0 1 0 15 0 a7.5 7.5 0 1 0 -15 0zM1421.07 287.35 a7.5 7.5 0 1 0 15 0 a7.5 7.5 0 1 0 -15 0zM1356.12 324.85 a7.5 7.5 0 1 0 15 0 a7.5 7.5 0 1 0 -15 0zM1291.16 212.35 a7.5 7.5 0 1 0 15 0 a7.5 7.5 0 1 0 -15 0zM1550.98 737.35 a7.5 7.5 0 1 0 15 0 a7.5 7.5 0 1 0 -15 0zM1615.93 774.85 a7.5 7.5 0 1 0 15 0 a7.5 7.5 0 1 0 -15 0zM1615.93 849.85 a7.5 7.5 0 1 0 15 0 a7.5 7.5 0 1 0 -15 0zM1550.98 887.35 a7.5 7.5 0 1 0 15 0 a7.5 7.5 0 1 0 -15 0zM1486.02 849.85 a7.5 7.5 0 1 0 15 0 a7.5 7.5 0 1 0 -15 0zM1486.02 774.85 a7.5 7.5 0 1 0 15 0 a7.5 7.5 0 1 0 -15 0zM1550.98 962.35 a7.5 7.5 0 1 0 15 0 a7.5 7.5 0 1 0 -15 0zM1486.02 999.85 a7.5 7.5 0 1 0 15 0 a7.5 7.5 0 1 0 -15 0zM1421.07 962.35 a7.5 7.5 0 1 0 15 0 a7.5 7.5 0 1 0 -15 0zM1421.07 887.35 a7.5 7.5 0 1 0 15 0 a7.5 7.5 0 1 0 -15 0zM1615.93 999.85 a7.5 7.5 0 1 0 15 0 a7.5 7.5 0 1 0 -15 0zM1615.93 1074.85 a7.5 7.5 0 1 0 15 0 a7.5 7.5 0 1 0 -15 0zM1550.98 1112.35 a7.5 7.5 0 1 0 15 0 a7.5 7.5 0 1 0 -15 0zM1486.02 1074.85 a7.5 7.5 0 1 0 15 0 a7.5 7.5 0 1 0 -15 0z" fill="#03305d"></path><path d="M19.32 -18.75L62.62 6.25L62.62 56.25L19.32 81.25L-23.98 56.25L-23.98 6.25zM62.62 356.25L105.93 381.25L105.93 431.25L62.62 456.25L19.32 431.25L19.32 381.25zM19.32 431.25L62.62 456.25L62.62 506.25L19.32 531.25L-23.98 506.25L-23.98 456.25zM62.62 506.25L105.93 531.25L105.93 581.25L62.62 606.25L19.32 581.25L19.32 531.25zM105.93 431.25L149.23 456.25L149.23 506.25L105.93 531.25L62.62 506.25L62.62 456.25zM192.53 731.25L235.83 756.25L235.83 806.25L192.53 831.25L149.23 806.25L149.23 756.25zM322.44 656.25L365.74 681.25L365.74 731.25L322.44 756.25L279.13 731.25L279.13 681.25zM322.44 806.25L365.74 831.25L365.74 881.25L322.44 906.25L279.13 881.25L279.13 831.25zM365.74 131.25L409.04 156.25L409.04 206.25L365.74 231.25L322.44 206.25L322.44 156.25zM409.04 356.25L452.35 381.25L452.35 431.25L409.04 456.25L365.74 431.25L365.74 381.25zM495.65 806.25L538.95 831.25L538.95 881.25L495.65 906.25L452.35 881.25L452.35 831.25zM538.95 131.25L582.25 156.25L582.25 206.25L538.95 231.25L495.65 206.25L495.65 156.25zM538.95 431.25L582.25 456.25L582.25 506.25L538.95 531.25L495.65 506.25L495.65 456.25zM538.95 731.25L582.25 756.25L582.25 806.25L538.95 831.25L495.65 806.25L495.65 756.25zM582.25 806.25L625.56 831.25L625.56 881.25L582.25 906.25L538.95 881.25L538.95 831.25zM755.46 56.25L798.77 81.25L798.77 131.25L755.46 156.25L712.16 131.25L712.16 81.25zM755.46 356.25L798.77 381.25L798.77 431.25L755.46 456.25L712.16 431.25L712.16 381.25zM842.07 356.25L885.37 381.25L885.37 431.25L842.07 456.25L798.77 431.25L798.77 381.25zM842.07 806.25L885.37 831.25L885.37 881.25L842.07 906.25L798.77 881.25L798.77 831.25zM971.98 881.25L1015.28 906.25L1015.28 956.25L971.98 981.25L928.67 956.25L928.67 906.25zM1145.18 -18.75L1188.49 6.25L1188.49 56.25L1145.18 81.25L1101.88 56.25L1101.88 6.25zM1188.49 56.25L1231.79 81.25L1231.79 131.25L1188.49 156.25L1145.18 131.25L1145.18 81.25zM1145.18 131.25L1188.49 156.25L1188.49 206.25L1145.18 231.25L1101.88 206.25L1101.88 156.25zM1188.49 656.25L1231.79 681.25L1231.79 731.25L1188.49 756.25L1145.18 731.25L1145.18 681.25zM1231.79 281.25L1275.09 306.25L1275.09 356.25L1231.79 381.25L1188.49 356.25L1188.49 306.25zM1361.7 56.25L1405 81.25L1405 131.25L1361.7 156.25L1318.39 131.25L1318.39 81.25zM1318.39 281.25L1361.7 306.25L1361.7 356.25L1318.39 381.25L1275.09 356.25L1275.09 306.25zM1448.3 506.25L1491.61 531.25L1491.61 581.25L1448.3 606.25L1405 581.25L1405 531.25z" stroke="rgba(37, 59, 82, 0.93)" stroke-width="2"></path></g><defs><mask id="SvgjsMask1030"><rect width="1440" height="1000" fill="#ffffff"></rect></mask></defs></svg>